<svg xmlns="http://www.w3.org/2000/svg" width="35.369" height="35.332" viewBox="0 0 35.369 35.332"><defs><style>.a{fill:#fff;}</style></defs><path class="a" d="M19.308,24.84c-2,1.884-3.786,3.8-5.71,5.67a5.327,5.327,0,0,1-7.473,0A5.246,5.246,0,0,1,6.4,22.88c1.862-1.9,3.768-3.745,5.629-5.629a1.861,1.861,0,0,0,.219-2.9,2,2,0,0,0-2.886.2c-2,2-4.005,3.884-5.871,5.871A9.093,9.093,0,0,0,6.157,35.1a8.37,8.37,0,0,0,9.433-1.36c2.264-2,4.345-4.206,6.43-6.39a2.276,2.276,0,0,0,.479-1.763A1.83,1.83,0,0,0,21.13,24.2a1.789,1.789,0,0,0-1.821.635ZM35.373,6.09A8.564,8.564,0,0,0,27.623.68a8.345,8.345,0,0,0-5.889,1.763c-2.4,2.161-4.667,4.466-6.909,6.788a1.783,1.783,0,0,0,1.222,2.985,2.573,2.573,0,0,0,1.7-.72c2-2,4.005-4.005,6.01-5.849A4.652,4.652,0,0,1,28.3,4.6a5.208,5.208,0,0,1,2.4,8.793l-5.867,5.871a2.009,2.009,0,0,0-.242,2.806,2.142,2.142,0,0,0,3,0c2-2,4.005-3.884,6.01-6.01A8.747,8.747,0,0,0,35.373,6.09Z" transform="translate(-0.847 -0.649)"/><path class="a" d="M290.469,298.017a1.884,1.884,0,0,0,2.765,0q5.786-5.766,11.518-11.577a3.846,3.846,0,0,0,.582-1.043,2.014,2.014,0,0,0-1.181-2,1.847,1.847,0,0,0-2.184.5l-11.4,11.4a1.817,1.817,0,0,0-.1,2.721Z" transform="translate(-279.879 -273.427)"/></svg>