<svg xmlns="http://www.w3.org/2000/svg" xmlns:xlink="http://www.w3.org/1999/xlink" width="66.787" height="86.6" viewBox="0 0 66.787 86.6"><defs><style>.a{fill:#b4c2fa;}.b,.c{fill:#1a79d9;}.c{stroke:rgba(0,0,0,0);}.d{fill:url(#a);}.e{fill:url(#b);}</style><linearGradient id="a" x1="0.664" y1="0.395" x2="0.638" y2="0.789" gradientUnits="objectBoundingBox"><stop offset="0" stop-color="#a4b7fc"/><stop offset="1" stop-color="#6c9eef"/></linearGradient><linearGradient id="b" x1="0.5" y1="0.86" x2="1" y2="0.81" gradientUnits="objectBoundingBox"><stop offset="0" stop-color="#abbaff"/><stop offset="1" stop-color="#c5d1ff"/></linearGradient></defs><g transform="translate(-261 -416)"><g transform="translate(261 479.794)"><g transform="translate(0 0)"><path class="a" d="M261.868,215.246v-1.212a5.094,5.094,0,0,0-7.022-4.712v-4.76a1.538,1.538,0,0,0-.449-1.151,1.589,1.589,0,0,0-1.159-.441,1.5,1.5,0,0,0-1.583,1.587v14.857A1.5,1.5,0,0,0,253.238,221a1.594,1.594,0,0,0,1.159-.439,1.535,1.535,0,0,0,.449-1.149v-5.38a1.814,1.814,0,0,1,.558-1.351,1.888,1.888,0,0,1,1.369-.546,1.84,1.84,0,0,1,1.344.557,1.819,1.819,0,0,1,.559,1.337v2.466h.014v2.92A1.5,1.5,0,0,0,260.273,221a1.594,1.594,0,0,0,1.159-.439,1.535,1.535,0,0,0,.449-1.149v-4.159Z" transform="translate(-251.655 -202.971)"/><path class="a" d="M291.431,223.606v5.324a1.864,1.864,0,0,0,.556,1.367,1.846,1.846,0,0,0,1.36.559,1.814,1.814,0,0,0,1.347-.557,1.881,1.881,0,0,0,.543-1.364v-5.356a1.539,1.539,0,0,1,.449-1.151,1.592,1.592,0,0,1,1.159-.438,1.5,1.5,0,0,1,1.584,1.587v5.354a4.972,4.972,0,0,1-1.466,3.636,5.2,5.2,0,0,1-7.258.008,4.973,4.973,0,0,1-1.465-3.654V223.6a1.6,1.6,0,0,1,.436-1.163,1.527,1.527,0,0,1,1.146-.451,1.563,1.563,0,0,1,1.159.452A1.581,1.581,0,0,1,291.431,223.606Z" transform="translate(-276.751 -216.017)"/><g transform="translate(22.979 5.972)"><path class="b" d="M330.858,230.9a2.874,2.874,0,1,0-2.838-2.879v9.191a1.539,1.539,0,0,1-1.608,1.61,1.533,1.533,0,0,1-1.147-.449,1.593,1.593,0,0,1-.436-1.161v-9.187a6.067,6.067,0,1,1,6.029,6.066,1.528,1.528,0,0,1-1.147-.449,1.587,1.587,0,0,1-.438-1.158,1.5,1.5,0,0,1,1.584-1.584Z" transform="translate(-324.829 -221.989)"/></g><g transform="translate(36.336 5.972)"><path class="c" d="M373.39,221.989a5.941,5.941,0,1,1-4.291,1.742A5.862,5.862,0,0,1,373.39,221.989Zm0,3.191a2.834,2.834,0,0,0-2.838,2.849,2.791,2.791,0,0,0,.828,2.031,2.71,2.71,0,0,0,2.01.842,2.861,2.861,0,1,0,0-5.721Z" transform="translate(-367.361 -221.989)"/></g><g transform="translate(49.716 5.972)"><path class="c" d="M416,221.989a5.941,5.941,0,1,1-4.291,1.742A5.862,5.862,0,0,1,416,221.989Zm0,3.191a2.834,2.834,0,0,0-2.838,2.849,2.791,2.791,0,0,0,.828,2.031A2.71,2.71,0,0,0,416,230.9a2.861,2.861,0,1,0,0-5.721Z" transform="translate(-409.969 -221.989)"/></g><g transform="translate(63.097 3.33)"><path class="c" d="M455.768,215.159V226.69a1.528,1.528,0,0,1-.449,1.147,1.592,1.592,0,0,1-1.159.438,1.5,1.5,0,0,1-1.583-1.584V215.159a1.5,1.5,0,0,1,1.583-1.584A1.411,1.411,0,0,1,455.768,215.159Z" transform="translate(-452.577 -213.575)"/></g></g></g><g transform="translate(264.393 416)"><g transform="translate(0 0)"><g transform="translate(24.249)"><path class="d" d="M193.778,197.431a2.653,2.653,0,0,0-.358.016,4.082,4.082,0,0,0-.635.017.022.022,0,0,0-.032,0,4.985,4.985,0,0,0-4.508,4.963v2.913a2.133,2.133,0,0,0,3.186,1.87,1.575,1.575,0,0,0,.325-.271,4.076,4.076,0,0,1,.362-.347,4.79,4.79,0,0,1,3.141-1.187,3.862,3.862,0,0,1,.423.016,9.511,9.511,0,0,1,1.383.244,12.222,12.222,0,0,1,9.569,12.124l.016,9.422-.016,9.423a12.224,12.224,0,0,1-9.569,12.124,9.506,9.506,0,0,1-1.383.244,3.855,3.855,0,0,1-.423.016,4.79,4.79,0,0,1-3.141-1.188,4.069,4.069,0,0,1-.362-.346,1.552,1.552,0,0,0-.325-.271,2.132,2.132,0,0,0-3.186,1.87V252a4.985,4.985,0,0,0,4.508,4.963.022.022,0,0,0,.032,0,4.171,4.171,0,0,0,.635.016,2.653,2.653,0,0,0,.358.016,29.782,29.782,0,0,0,0-59.563Z" transform="translate(-188.245 -197.431)"/></g><path class="e" d="M179.414,238.26a5.622,5.622,0,0,0,1.725,4.166,5.749,5.749,0,0,0,3.971,1.611,6.159,6.159,0,0,0,4.362-1.643,5.655,5.655,0,0,0,1.726-4.134v-6.185a1.434,1.434,0,0,0,.032-.26v-5.957a1.433,1.433,0,0,0-.032-.26v-6.184a5.655,5.655,0,0,0-1.726-4.134,6.16,6.16,0,0,0-4.362-1.644,5.749,5.749,0,0,0-3.971,1.611,5.624,5.624,0,0,0-1.725,4.167V221.3a3.345,3.345,0,0,1-3.3,3.385,3.261,3.261,0,0,1-2.343-.992,3.485,3.485,0,0,1-.96-2.393V206.167a1.409,1.409,0,0,1-.016.26v-.537a2.633,2.633,0,0,0-2.62-2.376,2.458,2.458,0,0,0-1.107.244c-.2.114-.391.244-.586.375A30.1,30.1,0,0,0,158.81,214.6a29.635,29.635,0,0,0,0,28.48,30.107,30.107,0,0,0,9.667,10.465c.195.13.391.26.586.374a2.458,2.458,0,0,0,1.107.244,2.633,2.633,0,0,0,2.62-2.376v-.537a1.409,1.409,0,0,1,.016.26V236.371a3.485,3.485,0,0,1,.96-2.392,3.258,3.258,0,0,1,2.343-.993,3.344,3.344,0,0,1,3.3,3.384Z" transform="translate(-155.165 -199.055)"/></g></g></g></svg>