<svg xmlns="http://www.w3.org/2000/svg" width="37.216" height="37.216" viewBox="0 0 37.216 37.216"><defs><style>.a{fill:#5470ff;}.b{fill:#fff;}</style></defs><g transform="translate(-0.748)"><path class="a" d="M37.963,18.608A18.608,18.608,0,1,1,19.355,0,18.607,18.607,0,0,1,37.963,18.608"/><path class="b" d="M249.734,202.586a2.045,2.045,0,0,1-2.543,1.376l-5.24-1.561,1.167-3.919,5.24,1.561h0a2.047,2.047,0,0,1,1.376,2.543m1.767-8.032a2.045,2.045,0,0,1-2.382,2.933h0l-5.24-1.561,1.167-3.919,5.24,1.561a2.031,2.031,0,0,1,1.215.987m2.346-1.269a4.681,4.681,0,0,0-2.8-2.274l-.693-.206.971-3.259-2.49-.742-.971,3.259-2.126-.633.971-3.259-.6-.178-2.417-.72-.936,3.141-2.945-.877-.831,2.791,2.945.877-3.026,10.16-2.945-.877-.831,2.791,2.945.877-.79,2.651.6.178,2.417.72.825-2.769,2.131.635-.825,2.769,2.48.739.825-2.769.7.208a4.684,4.684,0,0,0,3.587-.372,4.7,4.7,0,0,0,1.864-6.445,4.707,4.707,0,0,0,1.966-6.417" transform="translate(-225.86 -178.54)"/></g></svg>