<svg xmlns="http://www.w3.org/2000/svg" xmlns:xlink="http://www.w3.org/1999/xlink" width="51.972" height="49.255" viewBox="0 0 51.972 49.255"><defs><style>.a{fill:#dcedff;}.b{fill:url(#a);}</style><linearGradient id="a" x1="0.013" y1="0.037" x2="0.982" y2="1" gradientUnits="objectBoundingBox"><stop offset="0" stop-color="#40a1ff"/><stop offset="1" stop-color="#5470ff"/></linearGradient></defs><g transform="translate(-66.202 -85.094)"><path class="a" d="M369.792,119.424m-8.73,0a8.73,8.73,0,1,0,8.73-8.73A8.73,8.73,0,0,0,361.062,119.424Z" transform="translate(-277.759 -24.115)"/><path class="a" d="M100.583,603.52m-8.73,0a8.73,8.73,0,1,0,8.73-8.73A8.73,8.73,0,0,0,91.853,603.52Z" transform="translate(-24.163 -480.135)"/><path class="a" d="M644.378,603.52m-8.73,0a8.73,8.73,0,1,0,8.73-8.73A8.73,8.73,0,0,0,635.648,603.52Z" transform="translate(-536.42 -480.135)"/><path class="b" d="M111.305,113.417a19.472,19.472,0,0,0-9.508-15.1,10.215,10.215,0,1,0-19.527,0,19.36,19.36,0,0,0-9.517,15.216,10.212,10.212,0,1,0,9.3,18.045,19.346,19.346,0,0,0,20.118-.1,10.211,10.211,0,1,0,9.131-18.06ZM92.033,88.064a7.245,7.245,0,1,1-7.245,7.245A7.253,7.253,0,0,1,92.033,88.064Zm-22.862,35a7.245,7.245,0,1,1,7.245,7.245A7.253,7.253,0,0,1,69.171,123.068Zm15.195,6.408A10.209,10.209,0,0,0,76.42,112.85c-.2,0-.41.009-.612.021a16.405,16.405,0,0,1,7.75-11.863,10.208,10.208,0,0,0,16.953,0,16.5,16.5,0,0,1,7.75,11.851c-.1,0-.2-.009-.3-.009a10.207,10.207,0,0,0-8.038,16.507,16.392,16.392,0,0,1-15.554.119Zm23.592.837a7.245,7.245,0,1,1,7.245-7.245A7.253,7.253,0,0,1,107.958,130.313Z"/></g></svg>