<svg xmlns="http://www.w3.org/2000/svg" xmlns:xlink="http://www.w3.org/1999/xlink" width="48.792" height="47.857" viewBox="0 0 48.792 47.857"><defs><style>.a{fill:#fff;}.b{fill:#dcedff;}.c{fill:url(#a);}</style><linearGradient id="a" x1="0.013" y1="0.037" x2="0.982" y2="1" gradientUnits="objectBoundingBox"><stop offset="0" stop-color="#40a1ff"/><stop offset="1" stop-color="#5470ff"/></linearGradient></defs><g transform="translate(-66 -77.143)"><path class="a" d="M507.082,255.164a.082.082,0,0,0,0-.164A.082.082,0,1,0,507.082,255.164Z" transform="translate(-416.959 -168.161)"/><path class="b" d="M159.272,195.5,148.56,207.03H138.6v14.229h9.96l10.56,11.535S159.272,196.329,159.272,195.5Z" transform="translate(-68.642 -111.904)"/><path class="c" d="M90.423,77.146,78.468,89.107H69.991A3.992,3.992,0,0,0,66,93.1v15.951a3.992,3.992,0,0,0,3.991,3.991h8.472L90.423,125a3.988,3.988,0,0,0,3.985-3.991V81.132a3.983,3.983,0,0,0-3.985-3.985m0,43.727L79.961,109.327H69.991V93.376h9.965L90.423,81.829v39.044m23.632-18.055c.393,0,.714-.785.714-1.75s-.316-1.75-.714-1.75h-4.988c-.393,0-.714.785-.714,1.75s.316,1.75.714,1.75h4.988m.54-22.6c.343-.2.224-1.036-.256-1.87s-1.15-1.357-1.494-1.161l-4.318,2.491c-.343.2-.224,1.036.256,1.87s1.15,1.357,1.494,1.161l4.318-2.491m0,41.71c.343.2.224,1.036-.256,1.87s-1.15,1.357-1.494,1.161l-4.318-2.491c-.343-.2-.224-1.036.256-1.87s1.15-1.357,1.494-1.161l4.318,2.491m-17.38-11.9c-.354-.959-.256-1.864.7-2.219,2.415-1.118,3.571-3.287,3.865-6.013a7.031,7.031,0,0,0-3.8-7.3,1.737,1.737,0,0,1,1.706-3.026,10.9,10.9,0,0,1,5.73,10.718,10.523,10.523,0,0,1-5.975,8.537,1.581,1.581,0,0,1-2.224-.7M97.215,110.03Z"/></g></svg>