<svg xmlns="http://www.w3.org/2000/svg" xmlns:xlink="http://www.w3.org/1999/xlink" width="47.839" height="44.304" viewBox="0 0 47.839 44.304"><defs><style>.a{fill:#dcedff;}.b{fill:url(#a);}</style><linearGradient id="a" x1="0.013" y1="0.037" x2="0.982" y2="1" gradientUnits="objectBoundingBox"><stop offset="0" stop-color="#40a1ff"/><stop offset="1" stop-color="#5470ff"/></linearGradient></defs><g transform="translate(-82.483 -116.787)"><path class="a" d="M115.917,419.533h43.967v26.019H115.917Z" transform="translate(-31.572 -285.887)"/><path class="b" d="M127.753,120.385h-8.134v-3.6h-2.851v3.6H95.744v-3.6H92.892v3.6H85.049a2.57,2.57,0,0,0-2.566,2.566v35.573a2.57,2.57,0,0,0,2.566,2.566h42.707a2.57,2.57,0,0,0,2.566-2.566V122.951a2.57,2.57,0,0,0-2.569-2.566Zm-34.861,2.851v3.889h2.851v-3.889h21.027v3.889h2.851v-3.889h7.849v8.984H85.334v-8.984h7.558Zm-7.558,35V135.071h42.137v23.165Z"/><path class="b" d="M219.15,578.889h16.961v2.851H219.15Zm0,6.917h16.961v2.851H219.15Zm-12.739,2.486c-.046,0-.094,0-.14-.006a1.432,1.432,0,0,1-.969-.522l-3.421-4.222,2.215-1.793,2.512,3.1L214.6,578.2l1.825,2.193-9.1,7.57a1.436,1.436,0,0,1-.91.328Z" transform="translate(-112.749 -435.72)"/></g></svg>