<svg xmlns="http://www.w3.org/2000/svg" xmlns:xlink="http://www.w3.org/1999/xlink" width="130" height="130" viewBox="0 0 130 130"><defs><style>.a{fill:#5470ff;}.b{fill:url(#a);}.c{fill:#fff;}</style><linearGradient id="a" x1="0.013" y1="0.037" x2="0.982" y2="1" gradientUnits="objectBoundingBox"><stop offset="0" stop-color="#40a1ff"/><stop offset="1" stop-color="#5470ff"/></linearGradient></defs><g transform="translate(-637 -150)"><rect class="a" width="34" height="34" rx="4" transform="translate(685 198)"/><rect class="b" width="70" height="70" rx="10" transform="translate(667 164)"/><g transform="translate(686.001 188.999)"><path class="c" d="M591.927,322.659l-9.735-8.695a1.539,1.539,0,0,1,2.049-2.3l9.735,8.695a1.539,1.539,0,0,1-2.049,2.3Z" transform="translate(-561.688 -311.279)"/><path class="c" d="M591.927,481.431l-9.735,8.695a1.539,1.539,0,0,0,2.049,2.3l9.735-8.695a1.539,1.539,0,0,0-2.049-2.3Z" transform="translate(-561.688 -472.341)"/><path class="c" d="M222.764,484.174H193.037a1.537,1.537,0,0,1,0-3.074h29.721a1.537,1.537,0,0,1,.005,3.074Z" transform="translate(-191.5 -472.399)"/></g></g></svg>