<svg xmlns="http://www.w3.org/2000/svg" width="35.858" height="22.378" viewBox="0 0 35.858 22.378"><defs><style>.a{fill:#071328;}</style></defs><g transform="translate(35.858 22.378) rotate(180)"><path class="a" d="M592.882,323.72l-10.642-9.5a1.682,1.682,0,0,1,2.24-2.509l10.642,9.5a1.682,1.682,0,0,1-2.24,2.509Z" transform="translate(-559.825 -311.279)"/><path class="a" d="M592.882,481.468l-10.642,9.5a1.682,1.682,0,0,0,2.24,2.509l10.642-9.5a1.682,1.682,0,0,0-2.24-2.509Z" transform="translate(-559.825 -471.531)"/><path class="a" d="M225.677,484.461h-32.5a1.68,1.68,0,1,1,0-3.361h32.491a1.68,1.68,0,0,1,.006,3.361Z" transform="translate(-191.5 -471.588)"/></g></svg>