<svg xmlns="http://www.w3.org/2000/svg" xmlns:xlink="http://www.w3.org/1999/xlink" width="48.874" height="22.71" viewBox="0 0 48.874 22.71"><defs><style>.a{fill:url(#a);}.b{filter:url(#h);}.c{filter:url(#e);}.d{filter:url(#b);}</style><linearGradient id="a" x1="0.5" x2="0.5" y2="1" gradientUnits="objectBoundingBox"><stop offset="0" stop-color="#3fa3ff"/><stop offset="1" stop-color="#5470ff"/></linearGradient><filter id="b" x="1.151" y="1.413" width="46.048" height="19.884" filterUnits="userSpaceOnUse"><feOffset dy="3" input="SourceAlpha"/><feGaussianBlur stdDeviation="3" result="c"/><feFlood flood-opacity="0.102"/><feComposite operator="in" in2="c"/><feComposite in="SourceGraphic"/></filter><filter id="e" x="0" y="0" width="22.71" height="22.71" filterUnits="userSpaceOnUse"><feOffset dy="3" input="SourceAlpha"/><feGaussianBlur stdDeviation="3" result="f"/><feFlood flood-opacity="0.102"/><feComposite operator="in" in2="f"/><feComposite in="SourceGraphic"/></filter><filter id="h" x="26.164" y="0" width="22.71" height="22.71" filterUnits="userSpaceOnUse"><feOffset dy="3" input="SourceAlpha"/><feGaussianBlur stdDeviation="3" result="i"/><feFlood flood-opacity="0.102"/><feComposite operator="in" in2="i"/><feComposite in="SourceGraphic"/></filter></defs><g transform="translate(-31 -434)"><g class="d" transform="matrix(1, 0, 0, 1, 31, 434)"><path class="a" d="M102.306,485.084H76.142a.942.942,0,0,1,0-1.884h26.164a.938.938,0,0,1,.942.942A.973.973,0,0,1,102.306,485.084Z" transform="translate(-65.05 -475.79)"/></g><g class="c" transform="matrix(1, 0, 0, 1, 31, 434)"><path class="a" d="M42.355,442.355m-2.355,0A2.355,2.355,0,1,0,42.355,440,2.355,2.355,0,0,0,40,442.355Z" transform="translate(-31 -434)"/></g><g class="b" transform="matrix(1, 0, 0, 1, 31, 434)"><path class="a" d="M842.355,442.355m-2.355,0A2.355,2.355,0,1,0,842.355,440,2.355,2.355,0,0,0,840,442.355Z" transform="translate(-804.84 -434)"/></g></g></svg>