<svg xmlns="http://www.w3.org/2000/svg" xmlns:xlink="http://www.w3.org/1999/xlink" width="132" height="121.09" viewBox="0 0 132 121.09"><defs><style>.a,.b,.c,.d,.e{fill-rule:evenodd;}.a{fill:url(#a);}.b{opacity:0.341;fill:url(#b);}.c{fill:url(#c);}.d{fill:url(#d);}.e{fill:url(#e);}.f,.g,.h{fill:rgba(55,229,230,0.15);stroke:#18c3e8;}.g,.j,.m{opacity:0.2;}.h,.k,.n{opacity:0.263;}.i,.j,.k{fill:#51eaed;}.l,.m,.n{fill:none;stroke:#707070;stroke-dasharray:7;}.o{fill:#c68620;}.p{fill:#ffcd2e;}.q{fill:#e8cfac;}.r{fill:#8d929a;}.s{fill:#fff;}</style><linearGradient id="a" x1="0.5" x2="0.5" y2="1" gradientUnits="objectBoundingBox"><stop offset="0" stop-color="#59d0fc" stop-opacity="0.11"/><stop offset="1" stop-color="#4b79ff" stop-opacity="0.11"/></linearGradient><linearGradient id="b" x1="0.5" y1="0.005" x2="0.5" y2="1" gradientUnits="objectBoundingBox"><stop offset="0" stop-color="#59d0fc" stop-opacity="0"/><stop offset="1" stop-color="#4b79ff"/></linearGradient><linearGradient id="c" x1="0.5" x2="0.5" y2="1" gradientUnits="objectBoundingBox"><stop offset="0" stop-color="#59d0fc" stop-opacity="0.4"/><stop offset="1" stop-color="#4b79ff" stop-opacity="0.4"/></linearGradient><linearGradient id="d" x1="0.5" x2="0.5" y2="1" gradientUnits="objectBoundingBox"><stop offset="0" stop-color="#59d0fc" stop-opacity="0.788"/><stop offset="1" stop-color="#4b79ff" stop-opacity="0.788"/></linearGradient><linearGradient id="e" x1="0.5" x2="0.5" y2="1" gradientUnits="objectBoundingBox"><stop offset="0" stop-color="#59d0fc"/><stop offset="1" stop-color="#4b79ff"/></linearGradient></defs><g transform="translate(-0.5 -0.09)"><g transform="translate(1 1)"><path class="a" d="M90.418,130.368q21.5-10.737,44.411,0c9.633,6.229,16.06,19.835,0,34.425,0,0,11.873,14.89-10.036,26.831s-43.716.643-51.827-5.606q-8.111-6.249-36.453-25.081-13.252-14.732,5.35-27.484T90.418,130.368Z" transform="translate(-19.021 -76.696)"/><path class="b" d="M144.611,11q-.369,58.227-.023,64.826c.3,5.7-2.313,12.256-9.758,19.021,0,0,11.873,14.89-10.036,26.831s-43.716.643-51.827-5.606q-8.111-6.249-36.453-25.081Q30.289,81.214,31.26,76.58,32.207,72.061,31,11Z" transform="translate(-19.021 -6.749)"/><path class="c" d="M124.41,148.55q14.26-7.1,29.456,0c6.389,4.119,10.652,13.117,0,22.765,0,0,7.875,9.846-6.657,17.743s-29,.425-34.375-3.707q-5.38-4.132-24.178-16.585-8.79-9.742,3.549-18.175T124.41,148.55Z" transform="translate(-52.153 -88.968)"/><path class="d" d="M124.41,112.55q14.26-7.1,29.456,0c6.389,4.119,10.652,13.117,0,22.765,0,0,7.875,9.846-6.657,17.743s-29,.425-34.375-3.707q-5.38-4.132-24.178-16.585-8.79-9.742,3.549-18.175T124.41,112.55Z" transform="translate(-52.153 -66.879)"/><path class="e" d="M124.41,63.55q14.26-7.1,29.456,0c6.389,4.119,10.652,13.117,0,22.765,0,0,7.875,9.846-6.657,17.743s-29,.425-34.375-3.707q-5.38-4.132-24.178-16.585-8.79-9.742,3.549-18.175T124.41,63.55Z" transform="translate(-52.153 -36.814)"/><ellipse class="f" cx="5" cy="5.5" rx="5" ry="5.5" transform="translate(0 50.59)"/><ellipse class="g" cx="5" cy="5.5" rx="5" ry="5.5" transform="translate(106 -0.41)"/><circle class="h" cx="2.5" cy="2.5" r="2.5" transform="translate(126 93.59)"/><circle class="i" cx="1" cy="1" r="1" transform="translate(4 55.59)"/><circle class="j" cx="1" cy="1" r="1" transform="translate(110 4.59)"/><circle class="k" cx="0.5" cy="0.5" r="0.5" transform="translate(128 95.59)"/><line class="l" y2="37.87" transform="translate(5.217 61.442)"/><line class="m" y2="37.87" transform="translate(111.099 10.434)"/><line class="n" y2="18.935" transform="translate(128.392 98.54)"/><g transform="translate(55.968 8.202)"><path class="o" d="M191.009,116.161c-.043-.019-.062-.043-.105-.062l-.49-.242-.124-.062c-.105-.043-.186-.081-.285-.124a.805.805,0,0,1-.186-.081c-.062-.019-.105-.043-.161-.062-.186-.062-.391-.143-.6-.2h-.043a5.576,5.576,0,0,0-.6-.143c-.062-.019-.124-.019-.186-.043s-.124-.019-.186-.043a1.968,1.968,0,0,0-.347-.043c-.043,0-.081-.019-.143-.019-.186-.019-.391-.043-.6-.062H185.8c-.105,0-.223.019-.329.019a.834.834,0,0,0-.223.019c-.248.019-.471.043-.713.081h-.019c-.267.043-.534.081-.794.143l-.248.062-.49.124a.065.065,0,0,0-.037.019c-.31.081-.633.186-.943.285l-.186.062c-.267.081-.509.186-.775.285a.756.756,0,0,0-.105.043c-.2.081-.428.186-.633.285-.019.019-.062.019-.081.037-.248.105-.471.223-.713.347a.776.776,0,0,1-.2.1c-.267.143-.534.285-.819.453s-.571.329-.838.509c-.081.062-.186.124-.267.186-.186.124-.366.248-.571.366-.105.081-.2.143-.31.223-.161.124-.347.248-.509.366l-.3.248c-.161.124-.347.267-.509.409a2.825,2.825,0,0,0-.285.248c-.186.161-.391.329-.571.49a2.364,2.364,0,0,1-.223.186c-.267.223-.509.471-.775.695a1.317,1.317,0,0,0-.161.161c-.161.161-.347.329-.509.49l-.081.081c-.31.3-.6.614-.9.918-.019.019-.019.043-.043.043-.285.3-.552.614-.819.918l-.081.081-.3.366c-.1.124-.223.267-.329.391-.143.161-.267.329-.409.509-.1.124-.2.267-.3.391a.3.3,0,0,0-.062.081c-.043.043-.062.081-.1.124-.329.428-.651.881-.98,1.328a.643.643,0,0,0-.1.143c-.019.019-.019.043-.043.062-.31.428-.6.881-.9,1.328-.019.043-.062.081-.081.124a1.979,1.979,0,0,0-.124.2c-.223.366-.453.738-.676,1.123a.944.944,0,0,0-.105.186c-.019.019-.019.043-.043.062-.242.428-.49.856-.738,1.309-.019.043-.043.062-.062.1a1.209,1.209,0,0,0-.105.223c-.186.347-.366.695-.534,1.061a1.21,1.21,0,0,0-.105.223,1.081,1.081,0,0,0-.062.143c-.2.447-.428.9-.614,1.352,0,.019-.019.019-.019.037-.019.043-.043.105-.062.143-.186.409-.347.819-.509,1.228-.019.062-.062.124-.081.2-.019.062-.043.105-.062.161-.186.49-.366.98-.534,1.47v.019c-.105.329-.2.658-.3.962-.019.081-.062.186-.081.267-.062.186-.105.366-.161.552-.019.062-.019.124-.043.186-.043.143-.081.31-.124.453-.062.2-.1.409-.143.614-.043.161-.062.31-.105.471a2.8,2.8,0,0,1-.081.329c-.019.081-.019.143-.043.223-.043.223-.081.471-.124.695-.019.161-.062.329-.081.471-.043.242-.081.471-.105.713a1.906,1.906,0,0,0-.043.329c0,.043-.019.105-.019.143-.019.1-.019.223-.043.329l-.062.676a2.175,2.175,0,0,0-.019.347c-.019.223-.019.453-.043.676,0,.1-.019.2-.019.3-.019.329-.019.658-.019.962.019,5.54,1.985,9.448,5.131,11.291l3.027,1.756c-3.17-1.843-5.112-5.745-5.131-11.291,0-.329,0-.633.019-.962a1.737,1.737,0,0,1,.019-.31c.019-.223.019-.447.043-.676,0-.124.019-.223.019-.347l.062-.676c.019-.105.019-.223.043-.329.019-.161.043-.329.062-.471.043-.248.062-.471.105-.713.019-.161.062-.329.081-.471.043-.223.081-.453.124-.695l.124-.552c.043-.161.062-.31.105-.471.043-.2.1-.409.143-.614.043-.143.081-.3.124-.447.062-.248.143-.49.2-.738.019-.081.062-.186.081-.267.1-.329.2-.676.329-1,.161-.49.347-.98.534-1.47.043-.124.1-.248.143-.366.161-.409.329-.819.509-1.228a.806.806,0,0,1,.081-.186l.614-1.352a2.176,2.176,0,0,0,.161-.347c.161-.347.347-.713.534-1.061.062-.105.1-.223.161-.329.242-.453.471-.881.738-1.309.043-.081.1-.161.143-.248.223-.366.453-.757.676-1.123.062-.1.143-.223.2-.329.285-.447.6-.9.9-1.328a1.949,1.949,0,0,0,.143-.2c.329-.447.658-.9.98-1.328.043-.062.105-.143.143-.2a4.755,4.755,0,0,1,.329-.409c.143-.161.267-.329.409-.49.105-.143.223-.267.329-.391.124-.161.267-.3.391-.453.267-.3.552-.614.838-.918.019-.019.019-.043.043-.043.285-.3.589-.614.9-.918.186-.186.391-.366.571-.571a1.319,1.319,0,0,0,.161-.161c.267-.248.509-.471.775-.695.062-.062.143-.124.2-.186.186-.161.391-.329.571-.49a2.275,2.275,0,0,0,.285-.248c.161-.143.347-.267.509-.409l.3-.248c.161-.124.347-.248.509-.366.105-.081.2-.143.31-.223.186-.124.366-.248.571-.366.081-.062.186-.124.267-.186.285-.186.552-.347.838-.509.267-.161.552-.3.819-.453a.776.776,0,0,1,.2-.1c.248-.124.471-.248.713-.347.019-.019.062-.019.081-.043.242-.124.49-.223.738-.329.267-.1.509-.2.775-.3l.186-.062c.329-.1.633-.2.943-.285.186-.043.366-.105.552-.143.081-.019.161-.043.267-.062.267-.062.534-.1.794-.143h.019a7.174,7.174,0,0,1,.713-.081c.081,0,.161-.019.223-.019a4.648,4.648,0,0,1,.509-.019h.918c.223.019.447.043.651.062.043,0,.081.019.143.019.186.019.347.062.534.081.062.019.124.019.186.043a5.181,5.181,0,0,1,.6.143h.043a5.594,5.594,0,0,1,.6.2c.062.019.1.043.161.062.161.062.3.124.471.2l.124.062c.2.105.391.2.571.31Zm0,0" transform="translate(-161.02 -114.97)"/><path class="p" d="M183.336,120.236c9.715-5.6,17.631-1.1,17.675,10.063s-7.835,24.791-17.551,30.393-17.631,1.1-17.65-10.063c-.043-11.167,7.811-24.772,17.526-30.393Zm0,0" transform="translate(-162.838 -116.054)"/><path class="o" d="M191.744,138.4a.823.823,0,0,1,.8-.081c.428.248.447,1.061,0,1.818l-2.6,4.523,2.413-1.39c.614-.366,1.123-.081,1.123.633a2.459,2.459,0,0,1-1.123,1.942l-2.885,1.675v1.718l2.885-1.656c.614-.366,1.123-.062,1.123.633a2.459,2.459,0,0,1-1.123,1.942l-2.885,1.675v2.289a2.459,2.459,0,0,1-1.123,1.942c-.614.347-1.123.062-1.123-.633v-2.289l-2.885,1.656c-.614.366-1.123.062-1.123-.633a2.459,2.459,0,0,1,1.123-1.942l2.885-1.656v-1.718l-2.885,1.656c-.614.366-1.123.081-1.123-.633a2.459,2.459,0,0,1,1.123-1.942l2.413-1.39-2.618-1.5c-.453-.248-.453-1.061,0-1.818a2.212,2.212,0,0,1,.794-.838.823.823,0,0,1,.8-.081l2.618,1.5,2.6-4.523a2.232,2.232,0,0,1,.794-.881Zm0,0" transform="translate(-169.447 -123.805)"/><path class="q" d="M192.579,160.822v-2.289l-2.209-1.29v2.289a.753.753,0,0,0,.329.713l2.209,1.29a.781.781,0,0,1-.329-.713Zm5.36-7.941a.675.675,0,0,1,.186-.043h.2c.062.019.1.043.161.062l-2.209-1.29c-.019,0-.043-.019-.062-.019s-.043-.019-.062-.019h-.285c-.043,0-.062.019-.1.019-.019,0-.019.019-.043.019s-.019,0-.043.019c-.019,0-.043,0-.043.019a.654.654,0,0,0-.161.081l-2.885,1.656,2.209,1.29,2.885-1.656c.062-.043.143-.062.2-.1.019-.037.043-.037.043-.037Zm0-4.312a.675.675,0,0,1,.186-.043h.2a1.105,1.105,0,0,1,.161.062l-2.209-1.29a.082.082,0,0,0-.062-.019c-.019,0-.043-.019-.062-.019h-.285c-.043,0-.062.019-.1.019-.019,0-.019.019-.043.019s-.019,0-.043.019c-.019,0-.043,0-.043.019a.653.653,0,0,0-.161.081l-2.413,1.39,2.209,1.29,2.413-1.39c.062-.043.143-.062.2-.1,0-.019.019-.019.043-.037Zm-5.36,7.383-2.209-1.29v-1.718l2.19,1.29Zm0,0" transform="translate(-172.162 -127.228)"/><path class="q" d="M186.145,156.266l.062-.248V156a1.551,1.551,0,0,1,.1-.267c.043-.081.081-.186.124-.267a2.738,2.738,0,0,1,.161-.242l.019-.019c.062-.062.105-.143.161-.2l.043-.043c.043-.043.105-.081.143-.124l.062-.062a1.362,1.362,0,0,1,.2-.143l2.885-1.656-2.209-1.29-2.885,1.656a.806.806,0,0,0-.2.143l-.062.062c-.043.019-.062.062-.105.081-.019.019-.019.043-.043.043l-.081.081c-.037.043-.062.081-.081.1s-.019.019-.019.043l-.019.019c0,.019-.019.019-.019.043-.019.043-.043.062-.062.1s-.043.062-.062.105c-.019.019-.019.062-.043.081-.019.043-.043.062-.043.1-.019.019-.019.062-.043.081a.48.48,0,0,1-.043.1.754.754,0,0,1-.043.105c0,.019-.019.043-.019.062v.019c0,.019,0,.019-.019.043-.019.043-.019.081-.037.124a.129.129,0,0,1-.019.081v.081c0,.081-.019.143-.019.223a.774.774,0,0,0,.329.713l2.209,1.29a.781.781,0,0,1-.329-.713,1.411,1.411,0,0,1,.019-.267c-.012.025-.012.006-.012-.012Zm8.04-15.057.043-.043a.976.976,0,0,1,.143-.124l.062-.062a1.022,1.022,0,0,1,.2-.143.544.544,0,0,1,.2-.081c.019,0,.019,0,.043-.019a.675.675,0,0,1,.186-.043h.2l.186.062-2.209-1.29c-.019,0-.043-.019-.062-.019s-.043-.019-.062-.019a.082.082,0,0,1-.062-.019h-.223c-.043,0-.062.019-.1.019-.019,0-.043.019-.062.019s-.019,0-.043.019c-.019,0-.019,0-.043.019a.439.439,0,0,0-.161.081,1.363,1.363,0,0,0-.2.143l-.062.062c-.043.043-.081.062-.105.105a.069.069,0,0,0-.019.043l-.043.043-.062.062c-.019.043-.062.062-.081.1l-.019.019a.018.018,0,0,1-.019.019c-.019.019-.019.043-.043.062-.019.043-.043.062-.062.1s-.043.062-.062.105v.019l-2.6,4.523,2.209,1.29,2.6-4.523c.062-.081.105-.186.161-.267a.018.018,0,0,1,.019-.019.411.411,0,0,1,.143-.242Zm0,0" transform="translate(-169.717 -124.248)"/><path class="q" d="M186.119,157.008l.062-.242v-.019a1.193,1.193,0,0,1,.105-.267c.043-.081.081-.186.124-.267a2.387,2.387,0,0,1,.161-.248.018.018,0,0,1,.019-.019c.062-.062.1-.143.161-.2l.043-.043c.043-.043.1-.081.143-.124l.062-.062a1.359,1.359,0,0,1,.2-.143l2.413-1.39-2.209-1.29L185,154.08a.806.806,0,0,0-.2.143l-.062.062c-.043.019-.062.062-.1.081l-.124.124a.68.68,0,0,0-.081.105c0,.019-.019.019-.019.043l-.019.019c0,.019-.019.019-.019.043-.019.043-.043.062-.062.1s-.043.062-.062.105c-.019.019-.019.062-.043.081-.019.043-.043.062-.043.1-.019.019-.019.062-.043.081a.754.754,0,0,1-.043.105.689.689,0,0,1-.043.1c0,.019-.019.043-.019.062v.019c0,.019,0,.019-.019.043a.981.981,0,0,1-.043.124.129.129,0,0,1-.019.081v.081c0,.081-.019.143-.019.223a.774.774,0,0,0,.329.713l2.209,1.29a.781.781,0,0,1-.329-.713,1.412,1.412,0,0,1,.019-.267c-.019.025-.019.006-.019-.019Zm0,0" transform="translate(-169.709 -129.289)"/><path class="r" d="M190.109,147.16l-2.209-1.29,2.637,1.5,2.209,1.29Zm0,0" transform="translate(-171.224 -126.7)"/><path class="s" d="M195.96,141.627a.812.812,0,0,1,.794-.081c.428.248.453,1.061,0,1.818l-2.6,4.523,2.413-1.39c.614-.366,1.123-.081,1.123.633a2.459,2.459,0,0,1-1.123,1.942l-2.885,1.675v1.718l2.885-1.656c.614-.366,1.123-.062,1.123.633a2.459,2.459,0,0,1-1.123,1.942l-2.885,1.675v2.289a2.459,2.459,0,0,1-1.123,1.942c-.614.347-1.123.062-1.123-.633v-2.289l-2.885,1.656c-.614.366-1.123.062-1.123-.633a2.459,2.459,0,0,1,1.123-1.942l2.885-1.656v-1.718l-2.885,1.656c-.614.366-1.123.081-1.123-.633a2.459,2.459,0,0,1,1.123-1.942l2.413-1.39-2.618-1.5c-.453-.248-.453-1.061,0-1.818a2.178,2.178,0,0,1,.8-.838.812.812,0,0,1,.794-.081l2.618,1.5,2.6-4.523a2.289,2.289,0,0,1,.8-.881Zm0,0" transform="translate(-171.046 -125.032)"/><path class="q" d="M187.363,151l-2.209-1.29a.927.927,0,0,1-.329-.943l2.209,1.29a.94.94,0,0,0,.329.943" transform="translate(-170.054 -127.801)"/><path class="q" d="M187.039,149.886l-2.209-1.29c0-.062.019-.1.019-.161l2.209,1.29a.479.479,0,0,1-.019.161m.037-.161-2.209-1.29a.25.25,0,0,1,.043-.124l2.209,1.29a.331.331,0,0,0-.043.124" transform="translate(-170.059 -127.626)"/><path class="q" d="M187.139,149.524l-2.209-1.29a.978.978,0,0,1,.043-.124l2.209,1.29a.983.983,0,0,0-.043.124" transform="translate(-170.097 -127.55)"/><path class="q" d="M187.2,149.34l-2.209-1.29a.482.482,0,0,1,.043-.1l2.209,1.29c-.019.037-.043.062-.043.1" transform="translate(-170.119 -127.49)"/><path class="q" d="M187.269,149.18l-2.209-1.29a.479.479,0,0,1,.043-.1l2.209,1.29a.16.16,0,0,0-.043.1" transform="translate(-170.146 -127.429)"/><path class="q" d="M187.339,149.006l-2.209-1.29a.757.757,0,0,1,.043-.105l2.209,1.29a.31.31,0,0,0-.043.105" transform="translate(-170.172 -127.361)"/><path class="q" d="M187.4,148.85l-2.209-1.29c.019-.043.043-.062.043-.1l2.209,1.29c-.019.037-.019.074-.043.1" transform="translate(-170.195 -127.304)"/><path class="q" d="M187.48,148.72l-2.19-1.29a.173.173,0,0,0,.043-.081v-.019l2.209,1.29v.019a.173.173,0,0,0-.062.081" transform="translate(-170.233 -127.254)"/><path class="q" d="M187.569,148.489l-2.209-1.29c.019-.043.043-.062.062-.105l2.209,1.29c-.025.043-.043.068-.062.105m.056-.1-2.209-1.29c.019-.043.043-.062.062-.1l2.209,1.29a.387.387,0,0,1-.062.1" transform="translate(-170.26 -127.129)"/><path class="q" d="M187.759,148.25l-2.209-1.29a.378.378,0,0,1,.081-.1l2.209,1.29c-.037.019-.056.062-.081.1" transform="translate(-170.332 -127.076)"/><path class="q" d="M187.9,148l-2.209-1.29a.347.347,0,0,1,.081-.1l2.209,1.29a.163.163,0,0,0-.081.1m.081-.124-2.209-1.29.124-.124,2.209,1.29-.124.124" transform="translate(-170.385 -126.924)"/><path class="q" d="M188.229,147.488l-2.209-1.29a1.593,1.593,0,0,1,.366-.285c.062-.019.105-.062.161-.081l2.209,1.29a.653.653,0,0,0-.161.081,1.507,1.507,0,0,0-.366.285m.527-.366-2.209-1.29a.331.331,0,0,1,.124-.043l2.209,1.29a.374.374,0,0,0-.124.043m.143-.043-2.209-1.29c.043,0,.062-.019.1-.019L189,147.06a.168.168,0,0,0-.1.019" transform="translate(-170.51 -126.662)"/><path class="q" d="M189.449,147.049l-2.209-1.29h.081l2.209,1.29c-.019-.019-.043-.019-.081,0m.081-.019-2.209-1.29h.081l2.209,1.29h-.081" transform="translate(-170.973 -126.651)"/><path class="q" d="M189.709,147.03l-2.209-1.29h.062l2.209,1.29h-.062" transform="translate(-171.072 -126.651)"/><path class="q" d="M189.809,147.06l-2.209-1.29a.082.082,0,0,1,.062.019l2.209,1.29a.081.081,0,0,0-.062-.019m.062,0-2.209-1.29c.019,0,.043.019.062.019l2.209,1.29a.075.075,0,0,1-.062-.019" transform="translate(-171.11 -126.662)"/><path class="q" d="M190.009,147.09,187.8,145.8c.019,0,.043.019.062.019l2.209,1.29a.05.05,0,0,1-.062-.019m.062.043-2.209-1.29,2.209,1.29" transform="translate(-171.186 -126.674)"/></g></g></g></svg>