<svg xmlns="http://www.w3.org/2000/svg" xmlns:xlink="http://www.w3.org/1999/xlink" width="151" height="157.459" viewBox="0 0 151 157.459"><defs><style>.a,.b,.c,.d,.g,.h,.i{fill-rule:evenodd;}.a{opacity:0.559;}.a,.g{fill:url(#a);}.b{opacity:0.187;fill:url(#b);}.c{opacity:0.482;fill:url(#c);}.d{fill:url(#d);}.e,.f,.j{fill:none;}.e,.f{stroke:#3fa2ff;}.f{stroke-linecap:square;}.h{fill:url(#f);}.i{fill:#b6e8fd;}.j{stroke:#8cd0ed;stroke-linecap:round;stroke-linejoin:round;stroke-width:5px;}.k{fill:#8cd0ed;}</style><linearGradient id="a" x1="0.5" x2="0.5" y2="1" gradientUnits="objectBoundingBox"><stop offset="0" stop-color="#59d0fc"/><stop offset="1" stop-color="#4b79ff"/></linearGradient><linearGradient id="b" x1="0.5" x2="0.5" y2="1" gradientUnits="objectBoundingBox"><stop offset="0" stop-color="#59d0fc" stop-opacity="0"/><stop offset="1" stop-color="#4b79ff"/></linearGradient><linearGradient id="c" x1="0.5" x2="0.5" y2="1" gradientUnits="objectBoundingBox"><stop offset="0" stop-color="#2a58ab"/><stop offset="1" stop-color="#4b79ff"/></linearGradient><linearGradient id="d" x1="0.536" y1="0.396" y2="0.604" xlink:href="#a"/><linearGradient id="f" x1="0.095" y1="0.774" x2="0.852" gradientUnits="objectBoundingBox"><stop offset="0" stop-color="#b6e8fd"/><stop offset="0.253" stop-color="#7cd5ff"/><stop offset="1" stop-color="#93aeff"/></linearGradient></defs><g transform="translate(-0.5 -0.21)"><g transform="translate(1 1)"><g transform="translate(0 0)"><path class="a" d="M43,178v20.041a.5.5,0,0,0,.252.436L92.32,226.687a9.564,9.564,0,0,0,9.458.043l50.194-28.252a.5.5,0,0,0,.257-.445l-.268-19.258h0a1.916,1.916,0,0,1-.69,1.587q-22.89,12.673-49.121,27.326h0a11.072,11.072,0,0,1-11.025-.129q-43.262-25.512-47.1-27.751A2.209,2.209,0,0,1,43,178Z" transform="translate(-21.356 -88.403)"/><path class="b" d="M43,3V128.182a.5.5,0,0,0,.252.436l49.059,28.264a9.566,9.566,0,0,0,9.473.043l50.188-28.308a.5.5,0,0,0,.256-.44l-.271-124.4h0Z" transform="translate(-21.356 -1.49)"/><path class="c" d="M43.7,145.082l50.872-28.566a5.034,5.034,0,0,1,5.006.044l51.362,30.047a1.51,1.51,0,0,1-.027,2.622l-49.038,27.358a11.073,11.073,0,0,1-11.029-.136L43.66,148.572a2.014,2.014,0,0,1,.038-3.489Z" transform="translate(-21.192 -57.547)"/><path class="d" d="M43,121v20.041a.5.5,0,0,0,.252.436L92.32,169.687a9.564,9.564,0,0,0,9.458.043l50.194-28.252a.5.5,0,0,0,.257-.445l-.268-19.258h0a1.916,1.916,0,0,1-.69,1.587q-22.89,12.673-49.121,27.326h0a11.072,11.072,0,0,1-11.025-.129q-43.262-25.512-47.1-27.751A2.209,2.209,0,0,1,43,121Z" transform="translate(-21.356 -60.094)"/><circle class="e" cx="2.5" cy="2.5" r="2.5" transform="translate(22 -0.29)"/><circle class="e" cx="2.5" cy="2.5" r="2.5" transform="translate(145 84.71)"/><circle class="e" cx="2.5" cy="2.5" r="2.5" transform="translate(0 100.71)"/><line class="f" y2="27.198" transform="translate(24.413 5.034)"/><line class="f" y2="27.198" transform="translate(147.735 90.101)"/><line class="f" y2="27.198" transform="translate(2.265 106.208)"/><path class="g" d="M43.7,89.083,94.571,60.516a5.034,5.034,0,0,1,5.006.044l51.362,30.047a1.51,1.51,0,0,1-.027,2.622l-49.038,27.358a11.073,11.073,0,0,1-11.029-.136L43.66,92.572a2.014,2.014,0,0,1,.038-3.489Z" transform="translate(-21.192 -29.735)"/><path class="h" d="M115.526,33.157,150.79,53.341a2.517,2.517,0,0,1,1.266,2.147l.352,23.74a2.513,2.513,0,0,1-.234,1.1q-1.1,2.372-4.99,3.931-10.92-6.38-35.376-23.613a2.516,2.516,0,0,1-1.062-1.894l-1.506-23.161h0l3.672-2.362A2.517,2.517,0,0,1,115.526,33.157Z" transform="translate(-54.254 -16.302)"/><path class="i" d="M111.785,37.088,147.02,57.649a2.516,2.516,0,0,1,1.248,2.174V83.814a2.516,2.516,0,0,1-3.785,2.173L109.248,65.426A2.516,2.516,0,0,1,108,63.253V39.262a2.517,2.517,0,0,1,3.785-2.174Z" transform="translate(-53.638 -18.249)"/><line class="j" x2="10.243" y2="5.476" transform="translate(79.077 38.545)"/><line class="j" x2="16.562" y2="9.032" transform="translate(72.256 43.051)"/><line class="j" x2="30.66" y2="18.076" transform="translate(58.663 42.556)"/><g transform="translate(58.893 27.685)"><path class="k" d="M2.775,8.3A21.671,21.671,0,0,1,.832,6.111h0A4.1,4.1,0,0,1,1.2.732L1.461.473h0A1.616,1.616,0,0,1,3.732.459l.014.014L4.6,1.33a1.211,1.211,0,0,1,0,1.714l-.768.769c-.329.329-.141,1,1.143,2.284S6.949,7.553,7.262,7.24l.769-.769h0a1.212,1.212,0,0,1,1.7-.011l.011.011.857.857h0a1.616,1.616,0,0,1,0,2.284l-.258.259h0a4.1,4.1,0,0,1-5.38.37A21.772,21.772,0,0,1,2.775,8.3ZM9.641.74h0a.4.4,0,0,1,.568,0l0,0h0a.4.4,0,0,1,0,.571l-2.17,2.17H9.49a.4.4,0,0,1,.4.4h0a.4.4,0,0,1-.4.4H7.066a.4.4,0,0,1-.4-.4.392.392,0,0,1,0-.04V1.462a.4.4,0,1,1,.808,0V2.908L9.64.741Z" transform="translate(0 0)"/></g></g></g></g></svg>