<svg xmlns="http://www.w3.org/2000/svg" width="48" height="48" viewBox="0 0 48 48"><defs><style>.a{fill:#f2fbef;}.b{fill:#32b18a;}</style></defs><g transform="translate(-58 -1744)"><circle class="a" cx="24" cy="24" r="24" transform="translate(58 1744)"/><g transform="translate(-193.641 1577.267)"><path class="b" d="M282.62,188.026c3.724,5.486.232,13.356-6.284,13.594h-1.4c-6.517-.238-10.008-8.347-6.284-13.834l6.517-9.542a.7.7,0,0,1,.931,0l6.517,9.78Zm-2.586,3.6c.244-.238.244-.478,0-.478h-3.665c-.243,0-.487,0-.487-.238l.977-3.345c0-.238-.244-.476-.489-.238l-5.13,6.211c-.244,0-.244.238,0,.478h3.665c.243,0,.243,0,.243.238l-.489,3.105c0,.238.244.478.489.238l4.887-5.97Z"/></g></g></svg>