<svg xmlns="http://www.w3.org/2000/svg" width="48" height="48" viewBox="0 0 48 48"><defs><style>.a{fill:#f0f3fe;}.b{fill:#407dff;stroke:#407dff;stroke-width:0.5px;}</style></defs><g transform="translate(-58 -1744)"><circle class="a" cx="24" cy="24" r="24" transform="translate(58 1744)"/><g transform="translate(-0.075 1686.5)"><path class="b" d="M81.585,92.531a11.522,11.522,0,1,1,8.141-3.376A11.441,11.441,0,0,1,81.585,92.531Zm0-21.424a9.908,9.908,0,1,0,7.008,2.9A9.853,9.853,0,0,0,81.585,71.107Z" transform="translate(0 0)"/><path class="b" d="M468.3,287.675a1.282,1.282,0,0,1,.422-.9,1.136,1.136,0,0,1,.753-.281,1.124,1.124,0,0,1,.737.307,1.107,1.107,0,0,1,.357.844,1.063,1.063,0,0,1-.289.87,1.225,1.225,0,0,1-.737.346,1.1,1.1,0,0,1-.779-.224,1.2,1.2,0,0,1-.445-.844Zm2.186,9.422a1.113,1.113,0,0,1-.232.589,1.2,1.2,0,0,1-.456.372.854.854,0,0,1-.555.05.947.947,0,0,1-.531-.365,1.034,1.034,0,0,1-.19-.372,2.321,2.321,0,0,1-.076-.43,4.239,4.239,0,0,1-.008-.445q.008-.223.008-.406-.016-.977-.008-1.938t-.008-1.938a6.437,6.437,0,0,0-.05-.8,2.191,2.191,0,0,1,.05-.8,1.181,1.181,0,0,1,.289-.513,1.1,1.1,0,0,1,.464-.3.966.966,0,0,1,.531-.016.813.813,0,0,1,.471.346,1.049,1.049,0,0,1,.266.654v1.912q0,.563.016,1.11c.01.529.016,1.06.016,1.589v1.7Z" transform="translate(-387.851 -211.339)"/></g></g></svg>