<svg xmlns="http://www.w3.org/2000/svg" width="48" height="48" viewBox="0 0 48 48"><defs><style>.a{fill:#ffe3e5;}.b{fill:#f57079;}</style></defs><g transform="translate(-58 -1744)"><circle class="a" cx="24" cy="24" r="24" transform="translate(58 1744)"/><g transform="translate(-92.133 1627)"><path class="b" d="M504.824,128a1.357,1.357,0,0,0-1.357,1.357v10.857a1.357,1.357,0,1,0,2.714,0V129.357A1.357,1.357,0,0,0,504.824,128Z" transform="translate(-330.476)"/><path class="b" d="M177.062,180.48v2.8a9.5,9.5,0,1,1-5.428,0v-2.8a12.214,12.214,0,0,0-9.5,11.9A12.363,12.363,0,0,0,173.995,204.6a12.214,12.214,0,0,0,3.067-24.116Z" transform="translate(0 -50.811)"/></g></g></svg>